<?xml version="1.0" encoding="UTF-8" standalone="no"?>
<!-- Created with Inkscape (http://www.inkscape.org/) -->

<svg
   xmlns:dc="http://purl.org/dc/elements/1.1/"
   xmlns:cc="http://creativecommons.org/ns#"
   xmlns:rdf="http://www.w3.org/1999/02/22-rdf-syntax-ns#"
   xmlns:svg="http://www.w3.org/2000/svg"
   xmlns="http://www.w3.org/2000/svg"
   xmlns:sodipodi="http://sodipodi.sourceforge.net/DTD/sodipodi-0.dtd"
   xmlns:inkscape="http://www.inkscape.org/namespaces/inkscape"
   width="123.79253mm"
   height="134.9119mm"
   viewBox="0 0 123.79253 134.9119"
   version="1.1"
   id="svg843"
   inkscape:version="0.92.4 (5da689c313, 2019-01-14)"
   sodipodi:docname="paypal_logo_white_outlined.svg">
  <defs
     id="defs837" />
  <sodipodi:namedview
     id="base"
     pagecolor="#ffffff"
     bordercolor="#666666"
     borderopacity="1.0"
     inkscape:pageopacity="0.0"
     inkscape:pageshadow="2"
     inkscape:zoom="0.98994949"
     inkscape:cx="444.8111"
     inkscape:cy="323.21634"
     inkscape:document-units="mm"
     inkscape:current-layer="layer1"
     showgrid="false"
     inkscape:window-width="1920"
     inkscape:window-height="1017"
     inkscape:window-x="1358"
     inkscape:window-y="-8"
     inkscape:window-maximized="1" />
  <metadata
     id="metadata840">
    <rdf:RDF>
      <cc:Work
         rdf:about="">
        <dc:format>image/svg+xml</dc:format>
        <dc:type
           rdf:resource="http://purl.org/dc/dcmitype/StillImage" />
        <dc:title />
      </cc:Work>
    </rdf:RDF>
  </metadata>
  <g
     inkscape:label="Camada 1"
     inkscape:groupmode="layer"
     id="layer1"
     transform="translate(-230.5233,3.9468724)">
    <path
       style="opacity:1;fill:#ffffff;fill-opacity:1;stroke:none;stroke-width:0.1;stroke-linecap:round;stroke-linejoin:round;stroke-miterlimit:4;stroke-dasharray:none;stroke-opacity:1;paint-order:normal"
       d="m 260.54536,129.59267 c -2.04084,-2.06869 -2.12662,-2.75516 -1.20177,-9.62017 0.6666,-4.94806 0.68395,-5.35646 0.23625,-5.55755 -0.1819,-0.0817 -5.85864,-0.20577 -12.61496,-0.27569 -12.5925,-0.13034 -13.65605,-0.19559 -14.89586,-0.91392 -0.67826,-0.39297 -1.28095,-1.3638 -1.46706,-2.3632 -0.40449,-2.17183 0.53991,-8.62374 7.8736,-53.791456 6.13638,-37.79356 8.76991,-52.9548958 9.61374,-55.3465498 0.53965,-1.52958601 2.60692,-4.19726 3.67263,-4.739338 1.62931,-0.828742 1.88585,-0.836098 31.67764,-0.908277 30.68,-0.07433 33.55266,-0.01187 36.52729,0.794274 4.97067,1.347089 9.54312,3.99743999 13.51618,7.834484 4.44961,4.297285 7.48073,9.5234148 8.83288,15.2292438 0.43156,1.821204 0.74941,5.529263 0.74941,8.743113 v 2.35712 l 2.05996,2.14281 c 4.84071,5.03536 7.62111,10.31522 8.85018,16.80606 0.49996,2.64034 0.4403,8.33262 -0.12083,11.52828 -1.61589,9.20261 -5.83137,17.1564 -12.52641,23.63498 -3.614,3.49712 -7.07207,5.87459 -11.96454,8.22571 -5.95185,2.86022 -8.68434,3.36951 -20.12725,3.75139 -2.75449,0.0919 -5.23417,0.25474 -5.51039,0.36181 -0.32237,0.12496 -0.54301,0.38482 -0.61614,0.72571 -0.0627,0.29208 -0.79645,4.655716 -1.6306,9.696966 -2.6081,15.76216 -3.6054,21.04783 -4.19875,22.25335 l -0.39534,0.8032 -17.49513,-0.002 -17.49515,-0.002 -1.34958,-1.36798 z m 32.3234,-4.37855 c 0.0634,-0.25258 1.01031,-5.75922 2.10426,-12.23698 1.09392,-6.47776 2.36339,-13.648006 2.82101,-15.933876 0.77992,-3.89569 0.86744,-4.18775 1.39679,-4.66072 0.72906,-0.65142 1.03651,-0.6779 10.6126,-0.91386 8.7199,-0.21486 10.1491,-0.37514 13.70327,-1.53674 6.05761,-1.97978 12.16232,-5.90882 16.11487,-10.37168 3.65186,-4.12333 7.3283,-11.33893 8.3334,-16.35566 0.75422,-3.76446 0.98676,-8.6391 0.57661,-12.08705 -0.3745,-3.14817 -2.28177,-8.04571 -4.30554,-11.0558 -1.01807,-1.51421 -2.05198,-2.76951 -2.16951,-2.634 -0.0394,0.0455 -0.55549,1.57094 -1.14675,3.38995 -2.45505,7.55255 -6.26624,13.70234 -12.11861,19.55471 -5.99442,5.99444 -12.03669,9.69136 -20.03501,12.25832 -5.33051,1.71075 -8.19079,1.94018 -27.14353,2.17721 -5.37046,0.0672 -9.80408,0.16463 -9.8525,0.2166 -0.25839,0.27738 -7.31385,48.168196 -7.31385,49.644716 v 1.0041 h 14.15362 14.15362 z m -35.17185,-16.70964 c 2.36135,-0.0919 3.21299,-0.18908 3.33089,-0.3799 0.0871,-0.141 0.21442,-0.73631 0.28294,-1.32292 0.42704,-3.65646 8.01482,-53.467236 9.57647,-62.865656 1.94992,-11.73532 2.3713,-13.81607 3.10295,-15.32231 0.77536,-1.59626 2.19908,-3.09286 3.5892,-3.77299 1.66474,-0.814473 3.84506,-0.877732 27.10755,-0.78652 25.18756,0.09876 24.30954,0.03637 29.84944,2.12108 1.51318,0.56941 2.81713,1.0353 2.89772,1.0353 0.0806,0 0.0971,-0.78667 0.0368,-1.74814 -0.42979,-6.851619 -2.45515,-11.650748 -6.85713,-16.2481768 -3.79039,-3.958698 -7.90286,-6.228352 -13.30967,-7.345563 -1.75673,-0.362987 -2.86147,-0.411946 -12.60333,-0.558501 -12.42615,-0.186936 -33.88566,-0.196696 -43.34015,-0.019712 l -6.58196,0.123214 -0.63791,0.696204 c -0.77502,0.845804 -1.00803,1.623359 -1.88709,6.296355 -2.34227,12.4516148 -16.15511,97.3969758 -16.15548,99.3519258 -1.1e-4,0.58101 0.29885,0.67545 2.45676,0.77612 2.41456,0.11264 16.02809,0.0914 19.142,-0.0298 z m 45.49193,-40.087266 c 3.04456,-0.47905 7.39235,-1.97333 11.24479,-3.86468 7.85339,-3.85562 14.04495,-9.93824 18.22616,-17.90545 1.9558,-3.72669 3.56188,-8.31793 4.02765,-11.51363 0.21616,-1.48304 0.21257,-1.5118 -0.2449,-1.96187 -0.51371,-0.50542 -3.36865,-1.96907 -4.75318,-2.43684 -2.70151,-0.91273 -7.26435,-1.07733 -31.12731,-1.12292 -16.93558,-0.0323 -20.45322,0.005 -20.85551,0.21981 -1.01008,0.54006 -0.95854,0.30627 -3.35923,15.2383 -1.86688,11.61169 -3.58511,22.784 -3.58535,23.31269 l -1.8e-4,0.44513 14.50483,-0.0938 c 9.77291,-0.0632 14.96724,-0.16652 15.92225,-0.31678 z"
       id="path821"
       inkscape:connector-curvature="0" />
  </g>
</svg>
