<?xml version="1.0" encoding="UTF-8" standalone="no"?>
<!-- Created with Inkscape (http://www.inkscape.org/) -->

<svg
   xmlns:dc="http://purl.org/dc/elements/1.1/"
   xmlns:cc="http://creativecommons.org/ns#"
   xmlns:rdf="http://www.w3.org/1999/02/22-rdf-syntax-ns#"
   xmlns:svg="http://www.w3.org/2000/svg"
   xmlns="http://www.w3.org/2000/svg"
   xmlns:sodipodi="http://sodipodi.sourceforge.net/DTD/sodipodi-0.dtd"
   xmlns:inkscape="http://www.inkscape.org/namespaces/inkscape"
   width="157.68924mm"
   height="157.34587mm"
   viewBox="0 0 157.68924 157.34587"
   version="1.1"
   id="svg1400"
   inkscape:version="0.92.4 (5da689c313, 2019-01-14)"
   sodipodi:docname="spotify_logo_white.svg">
  <defs
     id="defs1394">
    <marker
       inkscape:stockid="Arrow1Lstart"
       orient="auto"
       refY="0.0"
       refX="0.0"
       id="marker2251"
       style="overflow:visible"
       inkscape:isstock="true">
      <path
         id="path2249"
         d="M 0.0,0.0 L 5.0,-5.0 L -12.5,0.0 L 5.0,5.0 L 0.0,0.0 z "
         style="fill-rule:evenodd;stroke:none;stroke-width:1pt;stroke-opacity:1;fill:#ffffff;fill-opacity:1"
         transform="scale(0.8) translate(12.5,0)" />
    </marker>
    <marker
       inkscape:stockid="Arrow1Lstart"
       orient="auto"
       refY="0.0"
       refX="0.0"
       id="Arrow1Lstart"
       style="overflow:visible"
       inkscape:isstock="true">
      <path
         id="path1973"
         d="M 0.0,0.0 L 5.0,-5.0 L -12.5,0.0 L 5.0,5.0 L 0.0,0.0 z "
         style="fill-rule:evenodd;stroke:none;stroke-width:1pt;stroke-opacity:1;fill:#ffffff;fill-opacity:1"
         transform="scale(0.8) translate(12.5,0)" />
    </marker>
  </defs>
  <sodipodi:namedview
     id="base"
     pagecolor="#ffffff"
     bordercolor="#666666"
     borderopacity="1.0"
     inkscape:pageopacity="0.0"
     inkscape:pageshadow="2"
     inkscape:zoom="0.35"
     inkscape:cx="973.70972"
     inkscape:cy="225.91796"
     inkscape:document-units="mm"
     inkscape:current-layer="layer1"
     showgrid="false"
     inkscape:window-width="1920"
     inkscape:window-height="1017"
     inkscape:window-x="1358"
     inkscape:window-y="-8"
     inkscape:window-maximized="1" />
  <metadata
     id="metadata1397">
    <rdf:RDF>
      <cc:Work
         rdf:about="">
        <dc:format>image/svg+xml</dc:format>
        <dc:type
           rdf:resource="http://purl.org/dc/dcmitype/StillImage" />
        <dc:title></dc:title>
      </cc:Work>
    </rdf:RDF>
  </metadata>
  <g
     inkscape:label="Camada 1"
     inkscape:groupmode="layer"
     id="layer1"
     transform="translate(501.42201,28.113416)">
    <path
       style="opacity:0.81400003;fill:#ffffff;fill-opacity:1;stroke:none;stroke-width:15.11904716;stroke-linecap:round;stroke-linejoin:round;stroke-miterlimit:4;stroke-dasharray:none;stroke-opacity:1;paint-order:normal"
       d="m -436.21955,128.28138 c -21.93068,-4.1475 -40.37042,-16.38363 -52.32263,-34.719936 -19.90071,-30.530429 -16.4674,-70.171518 8.41105,-97.1136442 9.50558,-10.2940728 23.67442,-18.7224908 37.80055,-22.4859088 6.49107,-1.729327 9.08931,-2.009058 19.22282,-2.069579 8.98012,-0.05363 13.12527,0.259866 17.74466,1.342049 23.02792,5.394706 42.10692,19.9998778 52.7133,40.352578 6.48777,12.449447 8.91704,22.489678 8.91704,36.854439 0,5.734812 -0.47638,11.827359 -1.19943,15.339907 -6.18869,30.064239 -28.31148,53.519165 -57.67499,61.147915 -9.31068,2.41894 -24.6984,3.03798 -33.61237,1.35218 z m 49.16945,-29.459986 c 2.11947,-1.48454 2.79101,-4.78916 1.75506,-8.63645 -0.77021,-2.8603 -1.27381,-3.31424 -6.66076,-6.00391 -6.68086,-3.33571 -15.40221,-6.32839 -23.59244,-8.09557 -8.53765,-1.84215 -25.30409,-2.23384 -34.01785,-0.79469 -13.91179,2.29762 -17.05382,3.88426 -17.88946,9.03367 -0.63404,3.90717 0.22654,6.37883 2.65893,7.63667 1.90961,0.98749 2.72487,0.95027 7.73758,-0.35317 19.49331,-5.06883 40.93099,-3.12527 58.49514,5.30323 6.69618,3.213286 9.08706,3.609956 11.5138,1.91022 z m 10.0507,-29.216652 c 2.8844,-3.981815 2.99275,-7.27574 0.32697,-9.941507 -4.42296,-4.422958 -26.85936,-12.048377 -41.40128,-14.070968 -17.29534,-2.40556 -47.1473,0.402558 -51.59852,4.853776 -2.02879,2.028809 -3.05855,6.607977 -2.10719,9.370346 0.9925,2.88178 5.31212,4.800041 8.64473,3.838953 12.26598,-3.537373 34.1726,-4.446564 47.58645,-1.974993 8.51543,1.569016 20.83437,5.55108 26.97347,8.719087 6.34707,3.275318 8.74639,3.110588 11.57537,-0.794694 z m 10.50975,-29.017048 c 2.50806,-2.856537 3.10314,-6.596205 1.52022,-9.553908 -0.45429,-0.848823 -3.94111,-3.007783 -7.74851,-4.79769 -26.80862,-12.603046 -60.00128,-16.5974232 -90.32303,-10.869406 -7.86641,1.486025 -9.09275,1.933988 -11.28255,4.121264 -3.15487,3.151217 -3.41281,7.400581 -0.6314,10.40175 2.72507,2.94042 4.85126,3.114249 14.21627,1.162264 7.58862,-1.581724 10.4812,-1.773457 26.29159,-1.74272 15.54597,0.03022 18.75243,0.24847 25.67102,1.747324 9.80741,2.124691 22.04788,6.083832 29.51352,9.54605 7.4235,3.442679 9.73945,3.43997 12.77287,-0.01492 z"
       id="path1956"
       inkscape:connector-curvature="0" />
  </g>
</svg>
